<?xml version="1.0" encoding="utf-8"?>
<!-- Generator: Adobe Illustrator 25.3.1, SVG Export Plug-In . SVG Version: 6.00 Build 0)  -->
<svg version="1.1" id="Слой_1" xmlns="http://www.w3.org/2000/svg" xmlns:xlink="http://www.w3.org/1999/xlink" x="0px" y="0px"
	 viewBox="0 0 216.1 69.1" style="enable-background:new 0 0 216.1 69.1;" xml:space="preserve">
<style type="text/css">
	.st0{fill:#2C4663;}
	.st1{fill:#FFFFFF;}
	.st2{fill-rule:evenodd;clip-rule:evenodd;fill:#FFFFFF;}
	.st3{fill-rule:evenodd;clip-rule:evenodd;fill:#2C4663;}
	.st4{fill:none;stroke:#D0D4DD;stroke-width:2;stroke-miterlimit:3.8636;}
	.st5{fill-rule:evenodd;clip-rule:evenodd;}
	.st6{fill:none;stroke:#2C4663;stroke-width:2;stroke-miterlimit:3.8636;}
	.st7{fill:none;stroke:#B6BDD2;stroke-width:0.8596;stroke-miterlimit:3.8636;}
</style>
<g>
	<path class="st1" d="M59.3,17c-0.1,0-0.2-0.1-0.3-0.1c-0.2-0.1-0.5-0.3-0.7-0.4c-0.2-0.1-0.5-0.3-0.7-0.4C57.4,16,57.3,16,57.2,16
		s-0.2,0-0.3,0.1c-0.3,0.2-6,4.5-11.6,8.6c-5.6,4.2-11.4,8.5-11.8,8.7c-1.3-0.7-2.6-1.4-4-2.2c-1.3-0.7-2.6-1.4-3.9-2.1
		c-0.6,0.5-1.2,0.9-1.8,1.4c-0.6,0.5-1.2,0.9-1.8,1.4c1.3,0.7,3.2,1.8,4.9,2.7c1.6,0.9,2.9,1.6,2.9,1.6l-4.5,3.2L21,42.9l-5.7-3.3
		l-5.7-3.3c0,0,8.1-6.1,16.1-12.1C33.9,18.1,42,12.1,42,12c0.1,0,1.7,1.1,3.6,2.1c1.7,1,3.7,2.1,4,2.2c0.6-0.5,1.2-0.9,1.9-1.4
		c0.7-0.5,1.3-0.9,1.9-1.4c-4-2.3-7.8-4.6-11.8-6.8c-4.2-2.1-8-4.5-12-6.7c-3.9,2.2-7.7,4.5-11.6,6.7s-7.7,4.5-11.6,6.7
		c0.1,0.2,0.9,0.6,1.8,1.2c0.9,0.6,1.9,1,2.4,1.3c3.1-1.8,7.8-4.6,11.7-6.8c4-2.2,7-4.1,7-4.1c0.2,0,1.9,0.9,3.7,1.9
		c1.8,1,3.8,2.2,4.7,2.7c-3.3,2.5-6.7,5-10,7.5c-3.3,2.4-6.7,5-10,7.4c-0.1,0-4.3-2.3-8.2-4.6S1.6,15.7,2.1,16L1,16.6l-1,0.6l0.1,8
		l0.1,8c0,0,1.1-0.8,2.2-1.6C3.6,30.9,4.7,30,4.7,30c0-1.3,0-2.6,0-4.1c0-1.3,0-2.7,0-4.1c1.5,0.9,3.1,1.8,4.8,2.7
		c1.6,0.9,3.2,1.8,5,2.7c-2.3,1.7-4.8,3.6-7.1,5.3c-2.3,1.7-4.8,3.4-7.1,5.2c-0.2,0.7-0.1,4.6-0.1,8.2c0,3.7,0.2,7.1,0.2,7.1
		s0.6-0.5,1.5-1.1c0.9-0.6,2-1.3,3-1.8c0,0,0-2.5,0-5c0-2.4,0-5.1,0-5.1c0-0.2,0.2-0.4,0.4-0.5c0.2-0.2,0.5-0.3,0.8-0.5
		c4.8,2.7,6.7,3.8,7.8,4.4c1.1,0.6,1.6,0.9,3.7,2.1l-6,4.6l-6.3,4.6c2,1.2,4.1,2.4,6.1,3.7c2,1.2,4.1,2.3,6.1,3.6
		c2,1.2,4.1,2.3,6.1,3.6c2,1.2,4.1,2.3,6.2,3.6c1.7-1,3.3-1.9,5.1-2.9c1.7-1,3.5-2,5.2-2.9c-0.2-0.2-0.2-0.3-0.3-0.3l-0.1-0.1
		c-0.6-0.3-1.1-0.6-1.7-1c-0.6-0.3-1.1-0.6-1.7-1c-0.2-0.1-0.3-0.1-0.5-0.1c-0.2,0-0.3,0.1-0.5,0.2c-0.9,0.5-2.2,1.3-3.3,2
		c-1.1,0.6-2.1,1.1-2.1,1.1s-2.8-1.6-6.3-3.7c-3.4-2-7.7-4.5-10.6-6.1c3.6-2.6,7.1-5.3,10.6-7.9c3.6-2.6,7-5.3,10.6-7.8
		c3.3,1.9,6.7,3.8,10,5.6c3.3,1.8,6.7,3.8,10,5.6c0,0,0,0,0,0.1c0,0,0,0,0,0.1c-1.6,0.9-3.2,1.9-5,2.8c-1.6,0.9-3.2,1.9-5,2.8
		c-2.4-1.4-5-2.7-7.4-4.2c-2.4-1.4-5-2.7-7.4-4.2c-0.6,0.5-1.2,0.9-1.8,1.4c-0.6,0.5-1.2,0.9-1.9,1.4c1.6,0.9,3.1,1.7,4.8,2.6
		c1.5,0.9,3.1,1.7,4.7,2.6c1.5,0.8,3.1,1.7,4.7,2.6c1.5,0.9,3,1.7,4.7,2.6c2.5-1.5,4.9-2.9,7.3-4.5c2.4-1.5,5-2.9,8-4.4
		c0-0.7,0-1.3,0-1.9c0-0.6,0-1.3,0-1.9c-3.6-2-7.3-4.1-11-6.1c-3.8-2-7.5-4.1-11.1-6.1c2.9-2.1,5.9-4.3,8.8-6.5
		c2.9-2.2,5.7-4.3,8.2-6.5c0,3,0,6,0,9s0,6,0,8.9c1.5,0.4,2.5,0.8,3.2,1.2c0.7,0.4,1.2,0.8,1.8,1.2c0-1.6,0-7.4,0-13.1
		c0-5.7,0-11.4,0-12.9C59.5,17.1,59.4,17.1,59.3,17z"/>
	<path class="st1" d="M77,10.1h1.8c0.9,0,1.5,0.7,1.5,1.6c0,0.9-0.6,1.6-1.5,1.6H77V10.1z M77,15.4h1.8c1,0,1.9-0.3,2.5-1
		c0.7-0.7,1-1.5,1-2.5c0-1-0.3-1.8-1-2.5c-0.7-0.7-1.5-1-2.5-1h-4v10.8H77V15.4z"/>
	<path class="st1" d="M84.8,16.9v2c1.9,0.1,3.3-0.9,4.2-2.9l3.1-7.8H90l-2.1,5.2l-2.3-5.2h-2.1l3.5,7.5C86.7,16.6,86,17,84.8,16.9z"
		/>
	<path class="st1" d="M98.6,19.2c1.9,0,3.7-1,4.6-2.5l-1.8-1c-0.5,0.9-1.5,1.5-2.7,1.5c-1,0-1.8-0.3-2.5-1c-0.6-0.7-0.9-1.5-0.9-2.5
		c0-1,0.3-1.9,0.9-2.5c0.6-0.7,1.4-1,2.5-1c1.2,0,2.2,0.6,2.7,1.5l1.8-1C102.3,9,100.6,8,98.6,8c-1.6,0-2.9,0.5-4,1.6
		c-1,1-1.5,2.4-1.5,4c0,1.5,0.5,2.9,1.5,4C95.7,18.7,97,19.2,98.6,19.2z"/>
	<path class="st1" d="M114.6,16.6l-1.8-1c-0.5,0.9-1.5,1.5-2.7,1.5c-1,0-1.8-0.3-2.5-1c-0.6-0.7-0.9-1.5-0.9-2.5
		c0-1,0.3-1.9,0.9-2.5c0.6-0.7,1.4-1,2.5-1c1.2,0,2.2,0.6,2.7,1.5l1.8-1C113.7,9,111.9,8,110,8c-1.6,0-2.9,0.5-4,1.6
		c-1,1-1.5,2.4-1.5,4c0,1.5,0.5,2.9,1.5,4c1,1,2.3,1.6,4,1.6C111.9,19.2,113.7,18.2,114.6,16.6z"/>
	<polygon class="st1" points="119.4,13.9 123.3,19 125.6,19 121.6,13.4 125.5,8.2 123.1,8.2 119.4,13 119.4,8.2 117.4,8.2 117.4,19 
		119.4,19 	"/>
	<polygon class="st1" points="133.9,12.4 133.9,19 136,19 136,8.2 134.4,8.2 129.8,14.8 129.8,8.2 127.8,8.2 127.8,19 129.3,19 	"/>
	<polygon class="st1" points="145.6,16.9 141.2,16.9 141.2,14.5 145.2,14.5 145.2,12.5 141.2,12.5 141.2,10.2 145.6,10.2 145.6,8.2 
		139.1,8.2 139.1,19 145.6,19 	"/>
	<polygon class="st1" points="75,39.9 77,39.9 77,31.2 80.8,31.2 80.8,39.9 82.9,39.9 82.9,29.1 75,29.1 	"/>
	<path class="st1" d="M90.3,34.3h-1.8v-3.2h1.8c0.9,0,1.5,0.7,1.5,1.6C91.8,33.6,91.1,34.3,90.3,34.3z M90.3,29.1h-4v10.8h2.1v-3.6
		h1.8c1,0,1.9-0.3,2.5-1c0.7-0.7,1-1.5,1-2.5c0-1-0.3-1.8-1-2.5C92.1,29.4,91.3,29.1,90.3,29.1z"/>
	<path class="st1" d="M104.1,37c-0.6,0.7-1.4,1-2.4,1c-1,0-1.8-0.3-2.4-1c-0.6-0.7-1-1.5-1-2.5c0-1,0.3-1.8,1-2.5
		c0.6-0.7,1.4-1,2.4-1c1,0,1.8,0.3,2.4,1c0.6,0.7,1,1.5,1,2.5C105.1,35.5,104.8,36.3,104.1,37z M101.7,28.9c-1.5,0-2.8,0.5-4,1.6
		c-1,1.1-1.6,2.4-1.6,4s0.5,2.8,1.6,4c1.1,1.1,2.3,1.6,4,1.6c1.5,0,2.8-0.5,4-1.6c1.1-1.1,1.6-2.4,1.6-4s-0.5-2.8-1.6-4
		C104.5,29.4,103.2,28.9,101.7,28.9z"/>
	<polygon class="st1" points="120.6,39.9 120.6,29.1 118.3,29.1 115.3,34.2 112.2,29.1 110.1,29.1 110.1,39.9 112.2,39.9 
		112.2,32.9 115.2,37.9 115.5,37.9 118.4,32.9 118.4,39.9 	"/>
	<path class="st1" d="M127.6,37.9h-1.8v-3.2h1.8c0.9,0,1.5,0.7,1.5,1.6C129.1,37.1,128.4,37.9,127.6,37.9z M130.1,33.7
		c-0.7-0.7-1.5-1-2.5-1h-1.8v-3.6h-2.1v10.8h4c1,0,1.9-0.3,2.5-1c0.7-0.7,1-1.5,1-2.5C131.1,35.2,130.8,34.4,130.1,33.7z"/>
	<rect x="132.1" y="29.1" class="st1" width="2" height="10.8"/>
	<polygon class="st1" points="149.4,29.1 147.3,29.1 147.3,37.9 144.2,37.9 144.2,29.1 142.2,29.1 142.2,37.9 139.1,37.9 
		139.1,29.1 137,29.1 137,39.9 149.4,39.9 	"/>
	<path class="st1" d="M153.5,35.4c0,2-0.6,2.6-1.9,2.4v1.9c1.1,0.1,1.9-0.1,2.7-0.7c0.8-0.6,1.2-1.9,1.2-3.8v-4.3h3v8.7h2V29.1h-7.2
		v6.3H153.5z"/>
	<polygon class="st1" points="166,35.4 170,35.4 170,33.4 166,33.4 166,31.2 170.4,31.2 170.4,29.1 163.9,29.1 163.9,39.9 
		170.5,39.9 170.5,37.9 166,37.9 	"/>
	<polygon class="st1" points="179.2,33.4 175.4,33.4 175.4,29.1 173.2,29.1 173.2,39.9 175.4,39.9 175.4,35.4 179.2,35.4 
		179.2,39.9 181.4,39.9 181.4,29.1 179.2,29.1 	"/>
	<polygon class="st1" points="190.7,33.4 186.7,33.4 186.7,29.1 184.6,29.1 184.6,39.9 186.7,39.9 186.7,35.4 190.7,35.4 
		190.7,39.9 192.7,39.9 192.7,29.1 190.7,29.1 	"/>
	<path class="st1" d="M199.9,37.9h-1.8v-3.2h1.8c0.9,0,1.5,0.7,1.5,1.6C201.4,37.1,200.8,37.9,199.9,37.9z M199.9,32.7h-1.8v-3.6
		H196v10.8h4c1,0,1.9-0.3,2.5-1c0.7-0.7,1-1.5,1-2.5c0-1-0.3-1.8-1-2.5C201.9,33,200.9,32.7,199.9,32.7z"/>
	<rect x="204.6" y="29.1" class="st1" width="2" height="10.8"/>
	<polygon class="st1" points="211.5,37.9 211.5,35.4 215.6,35.4 215.6,33.4 211.5,33.4 211.5,31.2 216,31.2 216,29.1 209.5,29.1 
		209.5,39.9 216.1,39.9 216.1,37.9 	"/>
	<path class="st1" d="M79,55.2h-1.8V52H79c0.9,0,1.5,0.7,1.5,1.6C80.5,54.5,79.8,55.2,79,55.2z M79,50h-4v10.8h2.1v-3.6H79
		c1,0,1.9-0.3,2.5-1c0.7-0.7,1-1.5,1-2.5c0-1-0.3-1.8-1-2.5C80.8,50.3,80,50,79,50z"/>
	<polygon class="st1" points="87.4,56.3 91.4,56.3 91.4,54.3 87.4,54.3 87.4,52.1 91.7,52.1 91.7,50 85.2,50 85.2,60.8 91.8,60.8 
		91.8,58.8 87.4,58.8 	"/>
	<polygon class="st1" points="104.8,58.8 101.8,58.8 101.8,50 99.8,50 99.8,58.8 96.7,58.8 96.7,50 94.6,50 94.6,60.8 107,60.8 
		107,50 104.8,50 	"/>
	<polygon class="st1" points="112.2,56.3 116.2,56.3 116.2,54.3 112.2,54.3 112.2,52.1 116.6,52.1 116.6,50 110.1,50 110.1,60.8 
		116.7,60.8 116.7,58.8 112.2,58.8 	"/>
	<polygon class="st1" points="125.4,54.3 121.6,54.3 121.6,50 119.4,50 119.4,60.8 121.6,60.8 121.6,56.3 125.4,56.3 125.4,60.8 
		127.6,60.8 127.6,50 125.4,50 	"/>
	<polygon class="st1" points="132.9,56.6 132.9,50 130.8,50 130.8,60.8 132.4,60.8 137,54.2 137,60.8 139,60.8 139,50 137.5,50 	"/>
	<path class="st1" d="M147.6,55.2h-2.1c-0.8,0-1.4-0.7-1.4-1.6c0-0.9,0.6-1.6,1.4-1.6h2.1V55.2z M143,51c-0.7,0.7-1,1.5-1,2.5
		c0,1.4,0.9,2.7,2.3,3.2l-2.6,4h2.3l2.4-3.8h1.2v3.8h2.1V50h-4.3C144.5,50,143.6,50.3,143,51z"/>
</g>
</svg>
