<svg xmlns="http://www.w3.org/2000/svg" xml:space="preserve" id="Слой_1" x="0" y="0" style="enable-background:new 0 0 13.4 13.8" version="1.1" viewBox="0 0 13.4 13.8">
  <style>
    .st0{fill:#2c4663}.st1{fill:#fff}.st3{fill-rule:evenodd;clip-rule:evenodd;fill:#2c4663}.st4{fill:none;stroke:#d0d4dd;stroke-width:2;stroke-miterlimit:3.8636}.st5{fill-rule:evenodd;clip-rule:evenodd}.st6,.st7{fill:none;stroke:#2c4663;stroke-width:2;stroke-miterlimit:3.8636}.st7{stroke:#b6bdd2;stroke-width:.8596}
  </style>
  <path d="M10.8 3.4H9.4l-.3 1c-.3-.4-.6-.8-1-1-.3-.2-.7-.3-1.2-.3-.8 0-1.6.3-2.2.7-.6.5-1 1.1-1.4 1.8-.3.8-.5 1.5-.5 2.4 0 .9.3 1.6.8 2.2a2.52 2.52 0 0 0 3.1.6c.4-.2.7-.5.9-.7 0 .4.1.6.4.8.3 0 .6.1.9.1.5 0 1.1-.2 1.8-.6.7-.4 1.3-1 1.9-1.8s.8-1.8.9-3c0-1.1-.3-2.1-.9-3a7.4 7.4 0 0 0-2.3-2A9.2 9.2 0 0 0 7 0C5.7 0 4.5.3 3.5.9 2.4 1.4 1.6 2.2 1 3.3S0 5.5 0 6.9c0 1.5.3 2.7 1 3.7.6 1 1.5 1.8 2.5 2.4 1.1.5 2.3.8 3.6.8a6.6 6.6 0 0 0 5.6-3h-1.5A5.93 5.93 0 0 1 7 12.6c-1.7 0-3-.5-4-1.4-1-.9-1.6-2.3-1.6-4.1 0-1.1.2-2 .7-2.9.5-.8 1.1-1.5 1.9-2 1-.6 1.9-.8 3-.9.9 0 1.8.2 2.6.5.8.4 1.4.9 1.8 1.6.4.7.7 1.6.7 2.6s-.3 1.8-.8 2.5-1 1-1.6 1.1c-.1 0-.2 0-.3-.1 0-.1-.1-.2-.1-.3v-.4c0-.1.1-.3.1-.4l1.4-5zM6.1 9.5c-.5-.1-.9-.2-1.2-.5-.3-.4-.4-.8-.4-1.3s.1-.9.3-1.4c.2-.4.5-.8.9-1.1.4-.3.8-.5 1.3-.5.4 0 .8.2 1 .5.3.3.4.7.4 1.2s-.1.9-.3 1.4c-.1.4-.4.8-.8 1.1-.3.4-.8.5-1.2.6z" style="fill-rule:evenodd;clip-rule:evenodd;fill:#fff"/>
</svg>
